# xmcd
#
# Track frame offsets: 
#        25094
#        42957
#        60797
#        80913
#        106993
#        131032
#        164698
#        183014
#        194517
#
# Disc length: 2989 seconds
#
# Revision: 0
# Processed by: cddbd v1.5.2PL0 Copyright (c) Steve Scherf et al.
# Submitted via: ExactAudioCopy v1.0b3
#
DISCID=7f0a5f09
DTITLE=Ela Mielczarek - ElaeLa
DYEAR=2012
DGENRE=Blues
TTITLE0=01 Mgla Nad Miastem
TTITLE1=02 Kolysanka
TTITLE2=03 Przestrzen Bedzie
TTITLE3=04 Spacer Nad Jeziorem
TTITLE4=05 Mississippi
TTITLE5=06 Wyszedles
TTITLE6=07 Opowiesc Mam
TTITLE7=08 Zolty Balonik
TTITLE8=09 Zaspiwac Ci Che
EXTD=
EXTT0=
EXTT1=
EXTT2=
EXTT3=
EXTT4=
EXTT5=
EXTT6=
EXTT7=
EXTT8=
PLAYORDER=
